<svg xmlns="http://www.w3.org/2000/svg" viewBox="0 0 120 120">
<defs><radialGradient id="g" cx="0.3" cy="0.3"><stop offset="0" stop-color="#FFE066"/><stop offset="1" stop-color="#FF6B1A"/></radialGradient></defs>
<g stroke="#FF6B1A" stroke-width="6" stroke-linecap="round">
  <line x1="60" y1="6" x2="60" y2="18"/><line x1="60" y1="102" x2="60" y2="114"/>
  <line x1="6" y1="60" x2="18" y2="60"/><line x1="102" y1="60" x2="114" y2="60"/>
  <line x1="22" y1="22" x2="30" y2="30"/><line x1="90" y1="30" x2="98" y2="22"/>
  <line x1="22" y1="98" x2="30" y2="90"/><line x1="90" y1="90" x2="98" y2="98"/>
</g>
<circle cx="60" cy="60" r="34" fill="#FF6B1A"/>
<circle cx="60" cy="60" r="34" fill="url(#g)" opacity="0.4"/>
<path d="M44 56 Q50 50 56 56" stroke="#1F1108" stroke-width="3.5" fill="none" stroke-linecap="round"/>
<circle cx="70" cy="56" r="4" fill="#1F1108"/>
<path d="M48 68 Q60 80 72 68" stroke="#1F1108" stroke-width="3.5" fill="none" stroke-linecap="round"/>
<ellipse cx="44" cy="66" rx="4" ry="2.5" fill="#FFAB7E" opacity="0.85"/>
<ellipse cx="76" cy="66" rx="4" ry="2.5" fill="#FFAB7E" opacity="0.85"/>
</svg>