<svg xmlns="http://www.w3.org/2000/svg" viewBox="0 0 120 120">
<defs><radialGradient id="g" cx="0.3" cy="0.3"><stop offset="0" stop-color="#FFE066"/><stop offset="1" stop-color="#FF6B1A"/></radialGradient></defs>
<g stroke="#FF6B1A" stroke-width="7" stroke-linecap="round">
  <line x1="60" y1="2" x2="60" y2="18"/><line x1="60" y1="102" x2="60" y2="118"/>
  <line x1="2" y1="60" x2="18" y2="60"/><line x1="102" y1="60" x2="118" y2="60"/>
  <line x1="18" y1="18" x2="28" y2="28"/><line x1="92" y1="28" x2="102" y2="18"/>
  <line x1="18" y1="102" x2="28" y2="92"/><line x1="92" y1="92" x2="102" y2="102"/>
</g>
<circle cx="60" cy="60" r="34" fill="#FF6B1A"/>
<circle cx="60" cy="60" r="34" fill="url(#g)" opacity="0.4"/>
<path d="M46 52 L54 60 L46 56" stroke="#1F1108" stroke-width="3.5" fill="none" stroke-linecap="round" stroke-linejoin="round"/>
<path d="M74 52 L66 60 L74 56" stroke="#1F1108" stroke-width="3.5" fill="none" stroke-linecap="round" stroke-linejoin="round"/>
<path d="M44 65 Q60 84 76 65 Q60 75 44 65" fill="#1F1108"/>
<path d="M48 67 Q60 80 72 67" fill="white"/>
<ellipse cx="42" cy="68" rx="4" ry="2.5" fill="#FFAB7E"/>
<ellipse cx="78" cy="68" rx="4" ry="2.5" fill="#FFAB7E"/>
<circle cx="36" cy="36" r="2" fill="#FFE066"/>
<circle cx="86" cy="42" r="2" fill="#FFE066"/>
</svg>